<svg width="214" height="88" viewBox="0 0 214 88" fill="none" xmlns="http://www.w3.org/2000/svg">
<path fill-rule="evenodd" clip-rule="evenodd" d="M53 0C50.2386 0 48 2.23858 48 5V35C48 37.7614 50.2386 40 53 40H83C85.7614 40 88 37.7614 88 35V5C88 2.23858 85.7614 0 83 0H53ZM58.3906 12.4545L62.4957 27H65.0952L68.0142 16.794H68.1278L71.0398 27H73.6392L77.7443 12.4545H74.9105L72.2898 23.1506H72.1619L69.3565 12.4545H66.7784L63.9801 23.1435H63.8452L61.2244 12.4545H58.3906Z" fill="white" fill-opacity="0.75"/>
<path fill-rule="evenodd" clip-rule="evenodd" d="M101 48C98.2386 48 96 50.2386 96 53V83C96 85.7614 98.2386 88 101 88H131C133.761 88 136 85.7614 136 83V53C136 50.2386 133.761 48 131 48H101ZM110.435 75H115.364C116.841 75 118.105 74.7088 119.156 74.1264C120.212 73.544 121.019 72.7083 121.578 71.6193C122.142 70.5303 122.423 69.2282 122.423 67.7131C122.423 66.2027 122.144 64.9053 121.585 63.821C121.027 62.7367 120.226 61.9058 119.185 61.3281C118.148 60.7457 116.907 60.4545 115.463 60.4545H110.435V75ZM115.236 72.7202H113.07V62.7344H115.314C116.299 62.7344 117.123 62.919 117.786 63.2884C118.453 63.6529 118.957 64.2045 119.298 64.9432C119.639 65.6771 119.81 66.6004 119.81 67.7131C119.81 68.8258 119.639 69.7538 119.298 70.4972C118.957 71.2358 118.448 71.7921 117.771 72.1662C117.094 72.5355 116.249 72.7202 115.236 72.7202Z" fill="white" fill-opacity="0.75"/>
<path fill-rule="evenodd" clip-rule="evenodd" d="M53 48C50.2386 48 48 50.2386 48 53V83C48 85.7614 50.2386 88 53 88H83C85.7614 88 88 85.7614 88 83V53C88 50.2386 85.7614 48 83 48H53ZM70.5014 63.0043C70.9938 63.3499 71.2732 63.8329 71.3395 64.4531H73.875C73.8608 63.634 73.6312 62.9096 73.1861 62.2798C72.741 61.6454 72.1278 61.1506 71.3466 60.7955C70.5701 60.4356 69.6657 60.2557 68.6335 60.2557C67.6155 60.2557 66.7041 60.4356 65.8991 60.7955C65.0942 61.1506 64.4574 61.6501 63.9886 62.294C63.5246 62.938 63.2926 63.6884 63.2926 64.5455C63.2926 65.5871 63.6383 66.4228 64.3295 67.0526C65.0256 67.6776 65.9725 68.1439 67.1705 68.4517L68.8253 68.8778C69.3461 69.0104 69.8007 69.1619 70.1889 69.3324C70.5819 69.4981 70.8873 69.7064 71.1051 69.9574C71.3229 70.2036 71.4342 70.5161 71.4389 70.8949C71.4342 71.3116 71.3087 71.6761 71.0625 71.9886C70.8163 72.2964 70.4754 72.5379 70.0398 72.7131C69.6089 72.8835 69.107 72.9688 68.5341 72.9688C67.9848 72.9688 67.4877 72.8859 67.0426 72.7202C66.6023 72.5545 66.2448 72.3035 65.9702 71.9673C65.6955 71.6312 65.5393 71.2098 65.5014 70.7031H62.9091C62.947 71.669 63.1979 72.4882 63.6619 73.1605C64.1307 73.8329 64.7794 74.3442 65.608 74.6946C66.4413 75.045 67.4238 75.2202 68.5554 75.2202C69.7202 75.2202 70.7121 75.0402 71.5312 74.6804C72.3551 74.3158 72.9848 73.8116 73.4205 73.1676C73.8561 72.5189 74.0739 71.7685 74.0739 70.9162C74.0739 70.2865 73.9555 69.7372 73.7188 69.2685C73.482 68.7997 73.16 68.3996 72.7528 68.0682C72.3504 67.7367 71.8935 67.4621 71.3821 67.2443C70.8755 67.0265 70.3475 66.8537 69.7983 66.7259L68.4347 66.3849C68.1364 66.3139 67.8404 66.2263 67.5469 66.1222C67.2533 66.018 66.9858 65.8902 66.7443 65.7386C66.5028 65.5824 66.3111 65.393 66.169 65.1705C66.0317 64.9479 65.9631 64.6851 65.9631 64.3821C65.9678 64.0175 66.0743 63.6932 66.2827 63.4091C66.491 63.125 66.7917 62.9001 67.1847 62.7344C67.5777 62.5687 68.0488 62.4858 68.598 62.4858C69.3793 62.4858 70.0137 62.6586 70.5014 63.0043Z" fill="white" fill-opacity="0.75"/>
<path fill-rule="evenodd" clip-rule="evenodd" d="M5 48C2.23858 48 0 50.2386 0 53V83C0 85.7614 2.23858 88 5 88H35C37.7614 88 40 85.7614 40 83V53C40 50.2386 37.7614 48 35 48H5ZM13.4901 75H16.3026L17.5054 71.4134H22.9739L24.179 75H26.9915L21.8636 60.4545H18.6108L13.4901 75ZM22.2628 69.2969L20.294 63.4375H20.1804L18.2153 69.2969H22.2628Z" fill="white" fill-opacity="0.75"/>
<path fill-rule="evenodd" clip-rule="evenodd" d="M189 16H188C176.954 16 168 24.9543 168 36V37H189V16ZM193 37H214V36C214 24.9543 205.046 16 194 16H193V37ZM168 41H214V68C214 79.0457 205.046 88 194 88H188C176.954 88 168 79.0457 168 68V41Z" fill="white" fill-opacity="0.75"/>
</svg>
